<?xml version="1.0" encoding="UTF-8" standalone="no"?>
<!DOCTYPE svg PUBLIC "-//W3C//DTD SVG 1.1//EN" "http://www.w3.org/Graphics/SVG/1.1/DTD/svg11.dtd">
<svg width="100%" height="100%" viewBox="0 0 1140 1080" version="1.1" xmlns="http://www.w3.org/2000/svg" xmlns:xlink="http://www.w3.org/1999/xlink" xml:space="preserve" xmlns:serif="http://www.serif.com/" style="fill-rule:evenodd;clip-rule:evenodd;stroke-linejoin:round;stroke-miterlimit:2;">
    <g transform="matrix(1,0,0,1,-430,-160)">
        <g transform="matrix(-1,-6.12323e-17,-6.12323e-17,1,570,740)">
            <path d="M-500,-500C-776.142,-500 -1000,-276.143 -1000,0C-1000,276.143 -776.142,500 -500,500C-223.857,500 0,276.143 0,0C0,-276.143 -223.857,-500 -500,-500ZM-500,-495C-773.381,-495 -995,-273.382 -995,0C-995,273.382 -773.381,495 -500,495C-226.618,495 -5,273.382 -5,0C-5,-273.382 -226.618,-495 -500,-495Z" style="fill:rgb(32,32,32);"/>
        </g>
        <g transform="matrix(-1,-6.12323e-17,-6.12323e-17,1,430,660)">
            <path d="M-500,-500C-776.142,-500 -1000,-276.143 -1000,0C-1000,276.143 -776.142,500 -500,500C-223.857,500 0,276.143 0,0C0,-276.143 -223.857,-500 -500,-500ZM-500,-495C-773.381,-495 -995,-273.382 -995,0C-995,273.382 -773.381,495 -500,495C-226.618,495 -5,273.382 -5,0C-5,-273.382 -226.618,-495 -500,-495Z" style="fill:rgb(32,32,32);"/>
        </g>
    </g>
</svg>
