<?xml version="1.0" encoding="UTF-8" standalone="no"?>
<!DOCTYPE svg PUBLIC "-//W3C//DTD SVG 1.1//EN" "http://www.w3.org/Graphics/SVG/1.1/DTD/svg11.dtd">
<svg width="100%" height="100%" viewBox="0 0 2327 1381" version="1.1" xmlns="http://www.w3.org/2000/svg" xmlns:xlink="http://www.w3.org/1999/xlink" xml:space="preserve" xmlns:serif="http://www.serif.com/" style="fill-rule:evenodd;clip-rule:evenodd;stroke-linejoin:round;stroke-miterlimit:2;">
    <g transform="matrix(1,0,0,1,-756.722,-190.97)">
        <g transform="matrix(1,0,0,1,665.118,173.949)">
            <text x="102.404px" y="233.02px" style="font-family:'Bodoni-24-Bold-Italic', 'Bodoni* 24';font-weight:700;font-style:italic;font-size:288px;fill:rgb(32,32,32);">M<tspan x="353.396px 521.876px " y="233.02px 233.02px ">oo</tspan>ns<tspan x="981.38px 1166.56px 1329.14px " y="233.02px 233.02px 233.02px ">hot</tspan></text>
            <text x="102.404px" y="521.02px" style="font-family:'Bodoni-24-Bold-Italic', 'Bodoni* 24';font-weight:700;font-style:italic;font-size:288px;fill:rgb(32,32,32);">D<tspan x="323.3px " y="521.02px ">e</tspan>si<tspan x="697.7px 886.052px " y="521.02px 521.02px ">gn</tspan></text>
            <text x="102.404px" y="809.02px" style="font-family:'Bodoni-24-Bold-Italic', 'Bodoni* 24';font-weight:700;font-style:italic;font-size:288px;fill:rgb(32,32,32);">Co<tspan x="444.548px " y="809.02px ">.</tspan></text>
        </g>
        <g id="MDCo-Crescent" serif:id="MDCo Crescent" transform="matrix(3.39411,3.39411,-3.39411,3.39411,5426.33,-5860.4)">
            <path d="M580,1320C629.672,1330 670,1380.33 670,1440C670,1499.67 629.672,1550 580,1560C646.23,1560 700,1506.23 700,1440C700,1373.77 646.23,1320 580,1320Z" style="fill:rgb(32,32,32);"/>
        </g>
    </g>
</svg>
