<?xml version="1.0" encoding="UTF-8" standalone="no"?>
<!DOCTYPE svg PUBLIC "-//W3C//DTD SVG 1.1//EN" "http://www.w3.org/Graphics/SVG/1.1/DTD/svg11.dtd">
<svg width="100%" height="100%" viewBox="0 0 672 398" version="1.1" xmlns="http://www.w3.org/2000/svg" xmlns:xlink="http://www.w3.org/1999/xlink" xml:space="preserve" xmlns:serif="http://www.serif.com/" style="fill-rule:evenodd;clip-rule:evenodd;stroke-linejoin:round;stroke-miterlimit:2;">
    <g transform="matrix(1,0,0,1,-4142.55,-1035.31)">
        <g transform="matrix(1,0,0,1,2429.02,0)">
            <g transform="matrix(1,0,0,1,1616.52,910.293)">
                <g transform="matrix(144,0,0,144,102.404,233.02)">
                    <path d="M-0.028,-0.009L-0.028,0L0.132,0L0.132,-0.009L0.051,-0.009L0.204,-0.727L0.319,0.01L0.331,0.01L0.744,-0.733L0.59,-0.009L0.518,-0.009L0.518,0L0.823,0L0.823,-0.009L0.745,-0.009L0.9,-0.741L0.963,-0.741L0.963,-0.75L0.743,-0.75L0.444,-0.214L0.357,-0.75L0.123,-0.75L0.123,-0.741L0.198,-0.741L0.042,-0.009L-0.028,-0.009Z" style="fill:rgb(32,32,32);fill-rule:nonzero;"/>
                </g>
                <g transform="matrix(144,0,0,144,227.9,233.02)">
                    <path d="M0.216,0.01C0.372,0.01 0.524,-0.105 0.524,-0.295C0.524,-0.42 0.421,-0.47 0.325,-0.47C0.169,-0.47 0.017,-0.355 0.017,-0.165C0.017,-0.04 0.12,0.01 0.216,0.01ZM0.216,0.001C0.177,0.001 0.161,-0.038 0.161,-0.105C0.161,-0.229 0.226,-0.461 0.325,-0.461C0.364,-0.461 0.38,-0.422 0.38,-0.355C0.38,-0.231 0.315,0.001 0.216,0.001Z" style="fill:rgb(32,32,32);fill-rule:nonzero;"/>
                </g>
                <g transform="matrix(144,0,0,144,312.14,233.02)">
                    <path d="M0.216,0.01C0.372,0.01 0.524,-0.105 0.524,-0.295C0.524,-0.42 0.421,-0.47 0.325,-0.47C0.169,-0.47 0.017,-0.355 0.017,-0.165C0.017,-0.04 0.12,0.01 0.216,0.01ZM0.216,0.001C0.177,0.001 0.161,-0.038 0.161,-0.105C0.161,-0.229 0.226,-0.461 0.325,-0.461C0.364,-0.461 0.38,-0.422 0.38,-0.355C0.38,-0.231 0.315,0.001 0.216,0.001Z" style="fill:rgb(32,32,32);fill-rule:nonzero;"/>
                </g>
                <g transform="matrix(144,0,0,144,391.988,233.02)">
                    <path d="M0.129,-0.451L0.021,0L0.161,0L0.209,-0.202C0.248,-0.341 0.316,-0.449 0.377,-0.449C0.412,-0.449 0.407,-0.383 0.381,-0.307L0.313,-0.107C0.31,-0.098 0.308,-0.086 0.308,-0.071C0.308,-0.018 0.344,0.01 0.411,0.01C0.507,0.01 0.568,-0.063 0.606,-0.163L0.597,-0.166C0.566,-0.081 0.509,-0.011 0.454,-0.011C0.441,-0.011 0.435,-0.018 0.435,-0.029C0.435,-0.034 0.436,-0.041 0.438,-0.047L0.525,-0.308C0.556,-0.402 0.514,-0.47 0.412,-0.47C0.323,-0.47 0.268,-0.388 0.228,-0.281L0.271,-0.46L0.061,-0.46L0.061,-0.451L0.129,-0.451Z" style="fill:rgb(32,32,32);fill-rule:nonzero;"/>
                </g>
                <g transform="matrix(144,0,0,144,482.348,233.02)">
                    <path d="M0.386,-0.397C0.378,-0.413 0.365,-0.424 0.34,-0.424C0.309,-0.424 0.282,-0.399 0.282,-0.364C0.282,-0.324 0.317,-0.303 0.346,-0.303C0.382,-0.303 0.409,-0.327 0.409,-0.368C0.409,-0.42 0.351,-0.469 0.249,-0.469C0.163,-0.469 0.063,-0.416 0.063,-0.317C0.063,-0.171 0.291,-0.165 0.291,-0.077C0.291,-0.035 0.247,0.003 0.177,0.003C0.073,0.003 0.028,-0.042 0.016,-0.082C0.02,-0.069 0.04,-0.051 0.069,-0.051C0.103,-0.051 0.136,-0.076 0.136,-0.116C0.136,-0.161 0.098,-0.182 0.068,-0.182C0.033,-0.182 -0.003,-0.156 -0.003,-0.11C-0.003,-0.055 0.048,0.012 0.177,0.012C0.289,0.012 0.384,-0.058 0.384,-0.152C0.384,-0.285 0.159,-0.297 0.159,-0.393C0.159,-0.429 0.191,-0.46 0.251,-0.46C0.327,-0.46 0.375,-0.429 0.386,-0.397Z" style="fill:rgb(32,32,32);fill-rule:nonzero;"/>
                </g>
                <g transform="matrix(144,0,0,144,541.892,233.02)">
                    <path d="M0.379,-0.307L0.311,-0.107C0.309,-0.098 0.306,-0.086 0.306,-0.071C0.306,-0.018 0.342,0.01 0.409,0.01C0.505,0.01 0.564,-0.063 0.602,-0.163L0.594,-0.166C0.563,-0.081 0.507,-0.011 0.452,-0.011C0.439,-0.011 0.433,-0.018 0.433,-0.029C0.433,-0.034 0.434,-0.041 0.436,-0.047L0.523,-0.308C0.554,-0.402 0.512,-0.47 0.41,-0.47C0.319,-0.47 0.264,-0.385 0.224,-0.276L0.335,-0.75L0.125,-0.75L0.125,-0.741L0.193,-0.741L0.02,0L0.16,0L0.204,-0.193C0.243,-0.337 0.313,-0.449 0.375,-0.449C0.41,-0.449 0.405,-0.383 0.379,-0.307Z" style="fill:rgb(32,32,32);fill-rule:nonzero;"/>
                </g>
                <g transform="matrix(144,0,0,144,634.484,233.02)">
                    <path d="M0.216,0.01C0.372,0.01 0.524,-0.105 0.524,-0.295C0.524,-0.42 0.421,-0.47 0.325,-0.47C0.169,-0.47 0.017,-0.355 0.017,-0.165C0.017,-0.04 0.12,0.01 0.216,0.01ZM0.216,0.001C0.177,0.001 0.161,-0.038 0.161,-0.105C0.161,-0.229 0.226,-0.461 0.325,-0.461C0.364,-0.461 0.38,-0.422 0.38,-0.355C0.38,-0.231 0.315,0.001 0.216,0.001Z" style="fill:rgb(32,32,32);fill-rule:nonzero;"/>
                </g>
                <g transform="matrix(144,0,0,144,715.772,233.02)">
                    <path d="M0.345,-0.163L0.337,-0.166C0.309,-0.091 0.252,-0.017 0.195,-0.017C0.182,-0.017 0.177,-0.025 0.177,-0.036C0.177,-0.041 0.178,-0.048 0.179,-0.054L0.271,-0.451L0.368,-0.451L0.368,-0.46L0.273,-0.46L0.296,-0.56L0.157,-0.56L0.134,-0.46L0.048,-0.46L0.048,-0.451L0.132,-0.451L0.05,-0.095C0.049,-0.089 0.048,-0.078 0.048,-0.073C0.048,-0.013 0.081,0.01 0.142,0.01C0.238,0.01 0.308,-0.063 0.345,-0.163Z" style="fill:rgb(32,32,32);fill-rule:nonzero;"/>
                </g>
                <g transform="matrix(144,0,0,144,102.404,377.02)">
                    <path d="M0.308,0C0.566,0 0.757,-0.227 0.757,-0.485C0.757,-0.663 0.63,-0.75 0.468,-0.75L0.123,-0.75L0.123,-0.741L0.221,-0.741L0.055,-0.009L-0.038,-0.009L-0.038,0L0.308,0ZM0.453,-0.741C0.562,-0.741 0.588,-0.642 0.588,-0.55C0.588,-0.363 0.487,-0.009 0.288,-0.009L0.21,-0.009L0.376,-0.741L0.453,-0.741Z" style="fill:rgb(32,32,32);fill-rule:nonzero;"/>
                </g>
                <g transform="matrix(144,0,0,144,212.852,377.02)">
                    <path d="M0.171,-0.116C0.171,-0.146 0.174,-0.178 0.181,-0.209C0.298,-0.212 0.496,-0.234 0.496,-0.367C0.496,-0.439 0.42,-0.47 0.323,-0.47C0.177,-0.47 0.017,-0.343 0.017,-0.155C0.017,-0.035 0.105,0.01 0.201,0.01C0.312,0.01 0.402,-0.066 0.446,-0.143L0.437,-0.143C0.393,-0.07 0.313,-0.009 0.238,-0.009C0.189,-0.009 0.171,-0.057 0.171,-0.116ZM0.33,-0.462C0.358,-0.462 0.365,-0.422 0.365,-0.385C0.365,-0.263 0.258,-0.225 0.183,-0.218C0.209,-0.344 0.276,-0.462 0.33,-0.462Z" style="fill:rgb(32,32,32);fill-rule:nonzero;"/>
                </g>
                <g transform="matrix(144,0,0,144,286.508,377.02)">
                    <path d="M0.386,-0.397C0.378,-0.413 0.365,-0.424 0.34,-0.424C0.309,-0.424 0.282,-0.399 0.282,-0.364C0.282,-0.324 0.317,-0.303 0.346,-0.303C0.382,-0.303 0.409,-0.327 0.409,-0.368C0.409,-0.42 0.351,-0.469 0.249,-0.469C0.163,-0.469 0.063,-0.416 0.063,-0.317C0.063,-0.171 0.291,-0.165 0.291,-0.077C0.291,-0.035 0.247,0.003 0.177,0.003C0.073,0.003 0.028,-0.042 0.016,-0.082C0.02,-0.069 0.04,-0.051 0.069,-0.051C0.103,-0.051 0.136,-0.076 0.136,-0.116C0.136,-0.161 0.098,-0.182 0.068,-0.182C0.033,-0.182 -0.003,-0.156 -0.003,-0.11C-0.003,-0.055 0.048,0.012 0.177,0.012C0.289,0.012 0.384,-0.058 0.384,-0.152C0.384,-0.285 0.159,-0.297 0.159,-0.393C0.159,-0.429 0.191,-0.46 0.251,-0.46C0.327,-0.46 0.375,-0.429 0.386,-0.397Z" style="fill:rgb(32,32,32);fill-rule:nonzero;"/>
                </g>
                <g transform="matrix(144,0,0,144,351.956,377.02)">
                    <path d="M0.151,-0.675C0.151,-0.627 0.188,-0.59 0.235,-0.59C0.283,-0.59 0.321,-0.627 0.321,-0.675C0.321,-0.723 0.283,-0.76 0.235,-0.76C0.188,-0.76 0.151,-0.723 0.151,-0.675ZM0.348,-0.163L0.341,-0.166C0.31,-0.083 0.25,-0.016 0.199,-0.016C0.186,-0.016 0.181,-0.025 0.181,-0.036C0.181,-0.041 0.182,-0.048 0.183,-0.054L0.281,-0.46L0.065,-0.46L0.065,-0.451L0.14,-0.451L0.054,-0.095C0.053,-0.089 0.052,-0.078 0.052,-0.073C0.052,-0.013 0.084,0.01 0.146,0.01C0.242,0.01 0.311,-0.063 0.348,-0.163Z" style="fill:rgb(32,32,32);fill-rule:nonzero;"/>
                </g>
                <g transform="matrix(144,0,0,144,400.052,377.02)">
                    <path d="M0.243,-0.16C0.369,-0.16 0.486,-0.235 0.486,-0.345C0.486,-0.37 0.48,-0.391 0.469,-0.408C0.502,-0.442 0.537,-0.456 0.567,-0.456C0.603,-0.456 0.633,-0.438 0.64,-0.399C0.636,-0.413 0.615,-0.431 0.59,-0.431C0.554,-0.431 0.527,-0.405 0.527,-0.372C0.527,-0.329 0.56,-0.309 0.59,-0.309C0.62,-0.309 0.653,-0.328 0.653,-0.383C0.653,-0.425 0.625,-0.465 0.567,-0.465C0.537,-0.465 0.499,-0.451 0.464,-0.416C0.434,-0.454 0.378,-0.47 0.313,-0.47C0.187,-0.47 0.07,-0.395 0.07,-0.285C0.07,-0.212 0.121,-0.175 0.191,-0.164C0.114,-0.153 0.037,-0.12 0.037,-0.054C0.037,-0.012 0.071,0.014 0.122,0.026C0.067,0.032 -0.043,0.065 -0.043,0.151C-0.043,0.233 0.076,0.26 0.194,0.26C0.329,0.26 0.472,0.183 0.472,0.042C0.472,-0.044 0.427,-0.085 0.337,-0.085C0.309,-0.085 0.266,-0.084 0.231,-0.084C0.175,-0.084 0.132,-0.091 0.132,-0.113C0.132,-0.142 0.18,-0.156 0.218,-0.161C0.226,-0.161 0.234,-0.16 0.243,-0.16ZM0.245,-0.169C0.216,-0.169 0.206,-0.206 0.206,-0.24C0.206,-0.324 0.251,-0.461 0.31,-0.461C0.339,-0.461 0.349,-0.424 0.349,-0.39C0.349,-0.306 0.304,-0.169 0.245,-0.169ZM0.079,0.14C0.079,0.088 0.105,0.045 0.136,0.029C0.155,0.033 0.177,0.034 0.2,0.034L0.327,0.034C0.382,0.034 0.413,0.053 0.413,0.107C0.413,0.209 0.288,0.25 0.199,0.25C0.113,0.25 0.079,0.205 0.079,0.14Z" style="fill:rgb(32,32,32);fill-rule:nonzero;"/>
                </g>
                <g transform="matrix(144,0,0,144,494.228,377.02)">
                    <path d="M0.129,-0.451L0.021,0L0.161,0L0.209,-0.202C0.248,-0.341 0.316,-0.449 0.377,-0.449C0.412,-0.449 0.407,-0.383 0.381,-0.307L0.313,-0.107C0.31,-0.098 0.308,-0.086 0.308,-0.071C0.308,-0.018 0.344,0.01 0.411,0.01C0.507,0.01 0.568,-0.063 0.606,-0.163L0.597,-0.166C0.566,-0.081 0.509,-0.011 0.454,-0.011C0.441,-0.011 0.435,-0.018 0.435,-0.029C0.435,-0.034 0.436,-0.041 0.438,-0.047L0.525,-0.308C0.556,-0.402 0.514,-0.47 0.412,-0.47C0.323,-0.47 0.268,-0.388 0.228,-0.281L0.271,-0.46L0.061,-0.46L0.061,-0.451L0.129,-0.451Z" style="fill:rgb(32,32,32);fill-rule:nonzero;"/>
                </g>
                <g transform="matrix(144,0,0,144,102.404,521.02)">
                    <path d="M0.333,0.01C0.407,0.01 0.474,-0.02 0.529,-0.065L0.586,0L0.593,0L0.648,-0.22L0.639,-0.22C0.572,-0.102 0.47,-0.004 0.352,-0.004C0.248,-0.004 0.218,-0.088 0.218,-0.185C0.218,-0.392 0.324,-0.745 0.523,-0.745C0.605,-0.745 0.692,-0.681 0.701,-0.53L0.71,-0.53L0.76,-0.75L0.753,-0.75L0.664,-0.682C0.626,-0.732 0.57,-0.76 0.498,-0.76C0.255,-0.76 0.053,-0.528 0.053,-0.255C0.053,-0.092 0.165,0.01 0.333,0.01Z" style="fill:rgb(32,32,32);fill-rule:nonzero;"/>
                </g>
                <g transform="matrix(144,0,0,144,202.484,521.02)">
                    <path d="M0.216,0.01C0.372,0.01 0.524,-0.105 0.524,-0.295C0.524,-0.42 0.421,-0.47 0.325,-0.47C0.169,-0.47 0.017,-0.355 0.017,-0.165C0.017,-0.04 0.12,0.01 0.216,0.01ZM0.216,0.001C0.177,0.001 0.161,-0.038 0.161,-0.105C0.161,-0.229 0.226,-0.461 0.325,-0.461C0.364,-0.461 0.38,-0.422 0.38,-0.355C0.38,-0.231 0.315,0.001 0.216,0.001Z" style="fill:rgb(32,32,32);fill-rule:nonzero;"/>
                </g>
                <g transform="matrix(144,0,0,144,273.476,521.02)">
                    <path d="M0.025,-0.08C0.025,-0.031 0.066,0.01 0.115,0.01C0.165,0.01 0.205,-0.031 0.205,-0.08C0.205,-0.13 0.165,-0.17 0.115,-0.17C0.066,-0.17 0.025,-0.13 0.025,-0.08Z" style="fill:rgb(32,32,32);fill-rule:nonzero;"/>
                </g>
            </g>
        </g>
    </g>
</svg>
