<?xml version="1.0" encoding="utf-8"?>
<!-- Generator: Adobe Illustrator 14.0.0, SVG Export Plug-In . SVG Version: 6.00 Build 43363)  -->
<!DOCTYPE svg PUBLIC "-//W3C//DTD SVG 1.1//EN" "http://www.w3.org/Graphics/SVG/1.1/DTD/svg11.dtd">
<svg version="1.1" id="Layer_1" xmlns="http://www.w3.org/2000/svg" xmlns:xlink="http://www.w3.org/1999/xlink" x="0px" y="0px"
	 width="721.488px" height="640.343px" viewBox="0 0 721.488 640.343" enable-background="new 0 0 721.488 640.343"
	 xml:space="preserve">
<g>
	<path fill="#202020" d="M109.033,21.704v96.592h-14.15V42.007l-26.523,68.086H54.072L27.549,42.007v76.289h-14.15V21.704h19.893
		L61.25,93.618l27.891-71.914H109.033z"/>
	<path fill="#202020" d="M142.905,114.81c-5.219-3.189-9.263-7.508-12.134-12.954c-2.871-5.445-4.307-11.404-4.307-17.876
		c0-6.426,1.436-12.339,4.307-17.739s6.915-9.673,12.134-12.817c5.218-3.145,11.177-4.717,17.876-4.717s12.657,1.572,17.876,4.717
		c5.218,3.145,9.273,7.417,12.168,12.817c2.894,5.4,4.341,11.313,4.341,17.739c0,6.472-1.447,12.431-4.341,17.876
		c-2.895,5.446-6.95,9.765-12.168,12.954c-5.219,3.19-11.177,4.785-17.876,4.785S148.123,118,142.905,114.81z M171.65,104.214
		c2.962-2.096,5.172-4.922,6.631-8.477c1.458-3.555,2.188-7.474,2.188-11.758c0-4.283-0.729-8.169-2.188-11.655
		c-1.459-3.486-3.669-6.255-6.631-8.306c-2.963-2.051-6.586-3.076-10.869-3.076c-4.284,0-7.896,1.025-10.835,3.076
		s-5.139,4.819-6.597,8.306c-1.459,3.486-2.188,7.372-2.188,11.655c0,4.33,0.729,8.261,2.188,11.792
		c1.458,3.532,3.657,6.347,6.597,8.442c2.939,2.097,6.551,3.145,10.835,3.145C165.064,107.358,168.688,106.311,171.65,104.214z"/>
	<path fill="#202020" d="M220.562,114.81c-5.219-3.189-9.263-7.508-12.134-12.954c-2.871-5.445-4.307-11.404-4.307-17.876
		c0-6.426,1.436-12.339,4.307-17.739s6.915-9.673,12.134-12.817c5.218-3.145,11.177-4.717,17.876-4.717s12.657,1.572,17.876,4.717
		c5.218,3.145,9.273,7.417,12.168,12.817c2.894,5.4,4.341,11.313,4.341,17.739c0,6.472-1.447,12.431-4.341,17.876
		c-2.895,5.446-6.95,9.765-12.168,12.954c-5.219,3.19-11.177,4.785-17.876,4.785S225.779,118,220.562,114.81z M249.307,104.214
		c2.962-2.096,5.172-4.922,6.631-8.477c1.458-3.555,2.188-7.474,2.188-11.758c0-4.283-0.729-8.169-2.188-11.655
		c-1.459-3.486-3.669-6.255-6.631-8.306c-2.963-2.051-6.586-3.076-10.869-3.076c-4.284,0-7.896,1.025-10.835,3.076
		s-5.139,4.819-6.597,8.306c-1.459,3.486-2.188,7.372-2.188,11.655c0,4.33,0.729,8.261,2.188,11.792
		c1.458,3.532,3.657,6.347,6.597,8.442c2.939,2.097,6.551,3.145,10.835,3.145C242.721,107.358,246.344,106.311,249.307,104.214z"/>
	<path fill="#202020" d="M288.066,50.005h14.082v9.16c2.415-3.463,5.445-6.072,9.092-7.827c3.646-1.754,7.451-2.632,11.416-2.632
		c5.469,0,10.037,1.276,13.706,3.828c3.668,2.553,6.368,5.925,8.101,10.117c1.731,4.193,2.62,8.818,2.666,13.877v41.768h-14.082
		V78.647c0-5.149-1.242-9.251-3.726-12.305c-2.484-3.053-6.027-4.58-10.63-4.58c-5.195,0-9.252,1.527-12.168,4.58
		c-2.917,3.054-4.375,7.588-4.375,13.604v38.35h-14.082V50.005z"/>
	<path fill="#202020" d="M374.438,117.1c-3.896-1.663-7.201-3.919-9.912-6.768c-2.712-2.848-4.638-6.026-5.776-9.536l11.348-4.99
		c1.23,3.373,3.167,6.21,5.811,8.511c2.643,2.302,6.152,3.452,10.527,3.452c2.734,0,5.047-0.455,6.938-1.367
		c1.891-0.911,3.315-2.096,4.272-3.555c0.957-1.458,1.436-3.008,1.436-4.648c0-1.868-0.615-3.384-1.846-4.546
		s-2.78-2.085-4.648-2.769c-1.869-0.684-4.467-1.458-7.793-2.324c-4.604-1.185-8.352-2.381-11.245-3.589
		c-2.895-1.207-5.378-3.076-7.451-5.605c-2.074-2.529-3.11-5.936-3.11-10.22c0-4.375,1.116-8.101,3.35-11.177
		c2.232-3.076,5.218-5.389,8.955-6.938c3.736-1.549,7.861-2.324,12.373-2.324c5.65,0,10.641,1.276,14.971,3.828
		c4.329,2.553,7.77,6.152,10.322,10.801l-10.938,5.947c-3.418-6.243-8.363-9.365-14.834-9.365c-3.236,0-5.822,0.695-7.759,2.085
		c-1.938,1.391-2.905,3.156-2.905,5.298c0,1.596,0.581,2.929,1.743,3.999c1.162,1.071,2.632,1.938,4.409,2.598
		c1.777,0.661,4.215,1.425,7.314,2.29c4.785,1.322,8.704,2.655,11.758,3.999c3.053,1.345,5.685,3.407,7.896,6.187
		c2.21,2.78,3.315,6.494,3.315,11.143c0,4.831-1.208,8.898-3.623,12.202c-2.416,3.305-5.583,5.776-9.502,7.417
		c-3.92,1.641-8.158,2.461-12.715,2.461C382.562,119.595,378.335,118.763,374.438,117.1z"/>
	<path fill="#202020" d="M429.365,21.704h14.355v37.461c2.415-3.463,5.4-6.072,8.955-7.827c3.555-1.754,7.314-2.632,11.279-2.632
		c5.469,0,10.06,1.276,13.774,3.828c3.714,2.553,6.46,5.925,8.237,10.117c1.777,4.193,2.688,8.818,2.734,13.877v41.768h-14.355
		V78.647c0-5.332-1.049-9.513-3.145-12.544c-2.097-3.03-5.651-4.546-10.664-4.546c-3.601,0-6.665,0.889-9.194,2.666
		s-4.433,4.228-5.708,7.349c-1.276,3.122-1.914,6.688-1.914,10.698v36.025h-14.355V21.704z"/>
	<path fill="#202020" d="M518.403,114.81c-5.219-3.189-9.263-7.508-12.134-12.954c-2.871-5.445-4.307-11.404-4.307-17.876
		c0-6.426,1.436-12.339,4.307-17.739s6.915-9.673,12.134-12.817c5.218-3.145,11.177-4.717,17.876-4.717s12.657,1.572,17.876,4.717
		c5.218,3.145,9.273,7.417,12.168,12.817c2.894,5.4,4.341,11.313,4.341,17.739c0,6.472-1.447,12.431-4.341,17.876
		c-2.895,5.446-6.95,9.765-12.168,12.954c-5.219,3.19-11.177,4.785-17.876,4.785S523.621,118,518.403,114.81z M547.148,104.214
		c2.962-2.096,5.172-4.922,6.631-8.477c1.458-3.555,2.188-7.474,2.188-11.758c0-4.283-0.729-8.169-2.188-11.655
		c-1.459-3.486-3.669-6.255-6.631-8.306c-2.963-2.051-6.586-3.076-10.869-3.076c-4.284,0-7.896,1.025-10.835,3.076
		s-5.139,4.819-6.597,8.306c-1.459,3.486-2.188,7.372-2.188,11.655c0,4.33,0.729,8.261,2.188,11.792
		c1.458,3.532,3.657,6.347,6.597,8.442c2.939,2.097,6.551,3.145,10.835,3.145C540.563,107.358,544.186,106.311,547.148,104.214z"/>
	<path fill="#202020" d="M593.462,114.194c-3.578-3.6-5.366-8.567-5.366-14.902V61.899h-11.211V50.005h11.416v-17.91l13.877-10.117
		v28.027h17.773v11.895h-17.773v35c0,3.646,0.752,6.255,2.256,7.827s3.668,2.358,6.494,2.358c2.734,0,5.719-0.729,8.955-2.188
		l0.068,12.783c-1.367,0.502-3.1,0.945-5.195,1.333c-2.097,0.387-4.193,0.581-6.289,0.581
		C602.041,119.595,597.039,117.795,593.462,114.194z"/>
	<path fill="#202020" d="M13.398,141.705h27.344c10.801,0,19.927,1.903,27.378,5.708c7.451,3.806,13.079,9.365,16.885,16.68
		c3.805,7.314,5.708,16.19,5.708,26.626c0,10.026-1.938,18.594-5.811,25.703c-3.874,7.109-9.56,12.533-17.056,16.27
		c-7.497,3.737-16.577,5.605-27.241,5.605H13.398V141.705z M39.238,224.761c11.895,0,20.997-2.757,27.31-8.271
		c6.312-5.514,9.468-14.31,9.468-26.387c0-8.157-1.23-14.788-3.691-19.893c-2.461-5.104-6.289-8.875-11.484-11.313
		c-5.195-2.438-11.963-3.657-20.303-3.657H28.096v69.521H39.238z"/>
	<path fill="#202020" d="M117.92,234.844c-5.059-3.167-8.864-7.417-11.416-12.749c-2.553-5.332-3.828-11.211-3.828-17.637
		c0-6.334,1.219-12.225,3.657-17.671c2.438-5.445,6.106-9.82,11.006-13.125c4.898-3.304,10.857-4.956,17.876-4.956
		c7.337,0,13.318,1.675,17.944,5.024c4.625,3.35,7.952,7.577,9.98,12.681c2.027,5.104,3.042,10.368,3.042,15.791
		c0,1.276-0.058,2.529-0.171,3.76c-0.114,1.23-0.239,2.097-0.376,2.598h-48.057c0.638,5.742,2.518,10.209,5.64,13.398
		c3.121,3.19,7.53,4.785,13.228,4.785c3.509,0,6.688-0.592,9.536-1.777c2.848-1.185,5.548-3.167,8.101-5.947l9.707,8.545
		c-3.783,4.102-7.896,7.133-12.339,9.092s-9.468,2.939-15.073,2.939C129.131,239.595,122.979,238.012,117.92,234.844z
		 M152.236,198.306c0.091-1.504-0.046-2.939-0.41-4.307c-0.729-4.01-2.553-7.246-5.469-9.707c-2.917-2.461-6.677-3.691-11.279-3.691
		c-5.104,0-9.104,1.596-11.997,4.785c-2.895,3.19-4.729,7.497-5.503,12.92H152.236z"/>
	<path fill="#202020" d="M189.526,237.1c-3.896-1.663-7.201-3.919-9.912-6.768c-2.712-2.848-4.638-6.026-5.776-9.536l11.348-4.99
		c1.23,3.373,3.167,6.21,5.811,8.511c2.643,2.302,6.152,3.452,10.527,3.452c2.734,0,5.047-0.455,6.938-1.367
		c1.891-0.911,3.315-2.096,4.272-3.555c0.957-1.458,1.436-3.008,1.436-4.648c0-1.868-0.615-3.384-1.846-4.546
		s-2.78-2.085-4.648-2.769c-1.869-0.684-4.467-1.458-7.793-2.324c-4.604-1.185-8.352-2.381-11.245-3.589
		c-2.895-1.207-5.378-3.076-7.451-5.605c-2.074-2.529-3.11-5.936-3.11-10.22c0-4.375,1.116-8.101,3.35-11.177
		c2.232-3.076,5.218-5.389,8.955-6.938c3.736-1.549,7.861-2.324,12.373-2.324c5.65,0,10.641,1.276,14.971,3.828
		c4.329,2.553,7.77,6.152,10.322,10.801l-10.938,5.947c-3.418-6.243-8.363-9.365-14.834-9.365c-3.236,0-5.822,0.695-7.759,2.085
		c-1.938,1.391-2.905,3.156-2.905,5.298c0,1.596,0.581,2.929,1.743,3.999c1.162,1.071,2.632,1.938,4.409,2.598
		c1.777,0.661,4.215,1.425,7.314,2.29c4.785,1.322,8.704,2.655,11.758,3.999c3.053,1.345,5.685,3.407,7.896,6.187
		c2.21,2.78,3.315,6.494,3.315,11.143c0,4.831-1.208,8.898-3.623,12.202c-2.416,3.305-5.583,5.776-9.502,7.417
		c-3.92,1.641-8.158,2.461-12.715,2.461C197.649,239.595,193.423,238.763,189.526,237.1z"/>
	<path fill="#202020" d="M243.975,141.705h14.766v14.902h-14.766V141.705z M244.316,170.005h14.082v68.291h-14.082V170.005z"/>
	<path fill="#202020" d="M325.562,229.341c3.531,1.276,6.426,3.384,8.682,6.323s3.384,6.756,3.384,11.45
		c0,4.557-1.14,8.521-3.418,11.895c-2.279,3.372-5.686,5.981-10.22,7.827c-4.535,1.846-10.129,2.769-16.782,2.769
		c-6.335,0-12.077-0.82-17.227-2.461c-5.15-1.641-9.24-4.147-12.271-7.52c-3.031-3.373-4.546-7.497-4.546-12.373
		c0-2.006,0.318-3.92,0.957-5.742l9.912-4.785c-2.644-1.549-4.819-3.543-6.528-5.981c-1.709-2.438-2.587-5.389-2.632-8.853
		c0-2.825,0.66-5.479,1.982-7.964c1.321-2.483,3.372-4.637,6.152-6.46c-2.963-4.192-4.443-8.932-4.443-14.219
		c0-4.739,1.185-8.978,3.555-12.715c2.369-3.736,5.616-6.642,9.741-8.716c4.124-2.073,8.716-3.11,13.774-3.11
		c6.289,0,11.758,1.596,16.406,4.785l10.391-9.023l7.314,9.023l-10.117,8.408c1.914,3.601,2.871,7.543,2.871,11.826
		c0,4.785-1.186,9.013-3.555,12.681c-2.37,3.669-5.595,6.506-9.673,8.511c-4.079,2.006-8.625,3.008-13.638,3.008
		c-5.332,0-10.141-1.139-14.424-3.418c-2.097,1.413-3.145,3.327-3.145,5.742c0,2.871,1.082,4.785,3.247,5.742
		c2.164,0.957,4.842,1.436,8.032,1.436h14.697C318.189,227.427,322.029,228.066,325.562,229.341z M319.409,256.207
		c3.121-1.687,4.683-4.33,4.683-7.93c0-3.464-1.401-5.822-4.204-7.075c-2.803-1.254-6.62-1.88-11.45-1.88h-15.244l-6.836,6.016
		v1.641c0,7.838,6.631,11.758,19.893,11.758C311.9,258.736,316.287,257.892,319.409,256.207z M298.833,181.695
		c-1.982,1.186-3.51,2.803-4.58,4.854c-1.071,2.051-1.606,4.353-1.606,6.904c0,3.874,1.173,7.041,3.521,9.502
		c2.347,2.461,5.571,3.691,9.673,3.691c4.01,0,7.188-1.219,9.536-3.657c2.347-2.438,3.521-5.594,3.521-9.468
		c0-2.552-0.524-4.864-1.572-6.938c-1.049-2.073-2.553-3.702-4.512-4.888c-1.96-1.185-4.284-1.777-6.973-1.777
		C303.15,179.917,300.815,180.51,298.833,181.695z"/>
	<path fill="#202020" d="M352.734,170.005h14.082v9.16c2.415-3.463,5.445-6.072,9.092-7.827c3.646-1.754,7.451-2.632,11.416-2.632
		c5.469,0,10.037,1.276,13.706,3.828c3.668,2.553,6.368,5.925,8.101,10.117c1.731,4.193,2.62,8.818,2.666,13.877v41.768h-14.082
		v-39.648c0-5.149-1.242-9.251-3.726-12.305c-2.484-3.053-6.027-4.58-10.63-4.58c-5.195,0-9.252,1.527-12.168,4.58
		c-2.917,3.054-4.375,7.588-4.375,13.604v38.35h-14.082V170.005z"/>
	<path fill="#202020" d="M27.344,352.999c-6.882-4.397-12.031-10.345-15.449-17.842c-3.418-7.496-5.127-15.894-5.127-25.19
		c0-9.342,1.709-17.762,5.127-25.259c3.418-7.496,8.567-13.443,15.449-17.842c6.881-4.397,15.313-6.597,25.293-6.597
		c9.615,0,17.955,2.324,25.02,6.973c7.063,4.648,12.486,11.394,16.27,20.234l-13.809,5.469
		c-3.783-12.441-12.988-18.662-27.617-18.662c-6.928,0-12.715,1.504-17.363,4.512s-8.112,7.144-10.391,12.407
		c-2.279,5.264-3.418,11.313-3.418,18.149c0,7.064,1.104,13.308,3.315,18.73c2.21,5.424,5.64,9.696,10.288,12.817
		c4.648,3.122,10.504,4.683,17.568,4.683c6.836,0,12.521-1.504,17.056-4.512c4.534-3.008,8.146-7.815,10.835-14.424l13.672,5.605
		c-3.828,8.842-9.32,15.609-16.475,20.303c-7.155,4.694-15.518,7.041-25.088,7.041C42.61,359.595,34.225,357.397,27.344,352.999z"/>
	<path fill="#202020" d="M116.724,354.81c-5.219-3.189-9.263-7.508-12.134-12.954c-2.871-5.445-4.307-11.404-4.307-17.876
		c0-6.426,1.436-12.339,4.307-17.739s6.915-9.673,12.134-12.817c5.218-3.145,11.177-4.717,17.876-4.717s12.657,1.572,17.876,4.717
		c5.218,3.145,9.273,7.417,12.168,12.817c2.894,5.4,4.341,11.313,4.341,17.739c0,6.472-1.447,12.431-4.341,17.876
		c-2.895,5.446-6.95,9.765-12.168,12.954c-5.219,3.19-11.177,4.785-17.876,4.785S121.941,358,116.724,354.81z M145.469,344.214
		c2.962-2.096,5.172-4.922,6.631-8.477c1.458-3.555,2.188-7.474,2.188-11.758c0-4.283-0.729-8.169-2.188-11.655
		c-1.459-3.486-3.669-6.255-6.631-8.306c-2.963-2.051-6.586-3.076-10.869-3.076c-4.284,0-7.896,1.025-10.835,3.076
		s-5.139,4.819-6.597,8.306c-1.459,3.486-2.188,7.372-2.188,11.655c0,4.33,0.729,8.261,2.188,11.792
		c1.458,3.532,3.657,6.347,6.597,8.442c2.939,2.097,6.551,3.145,10.835,3.145C138.883,347.359,142.506,346.311,145.469,344.214z"/>
	<path fill="#202020" d="M185.732,341.207h14.219v17.09h-14.219V341.207z"/>
</g>
<g>
	<path fill="#202020" d="M530.402,147.344c55.624,45.853,91.085,115.285,91.085,192.999c0,138.069-111.93,249.999-250,249.999
		c-20.296,0-40.021-2.436-58.915-7c43.199,35.611,98.559,57,158.915,57c138.07,0,250-111.93,250-249.999
		C721.488,272.57,640.04,173.833,530.402,147.344z"/>
</g>
</svg>
