<?xml version="1.0" encoding="UTF-8" standalone="no"?><!DOCTYPE svg PUBLIC "-//W3C//DTD SVG 1.1//EN" "http://www.w3.org/Graphics/SVG/1.1/DTD/svg11.dtd"><svg width="100%" height="100%" viewBox="0 0 482 347" version="1.1" xmlns="http://www.w3.org/2000/svg" xmlns:xlink="http://www.w3.org/1999/xlink" xml:space="preserve" xmlns:serif="http://www.serif.com/" style="fill-rule:evenodd;clip-rule:evenodd;stroke-linejoin:round;stroke-miterlimit:2;"><g transform="matrix(1,0,0,1,-98.564,-161.02)"><g transform="matrix(96,0,0,96,102.404,233.02)"><path d="M-0.03,-0.004l0,0.004l0.162,0l0,-0.004l-0.091,0l0.158,-0.738l0.117,0.752l0.007,0l0.42,-0.751l-0.157,0.737l-0.071,0l0,0.004l0.365,0l0,-0.004l-0.079,0l0.158,-0.742l0.061,0l0,-0.004l-0.277,0l-0.255,0.455l-0.074,-0.455l-0.294,0l0,0.004l0.076,0l-0.16,0.742l-0.066,0Z" style="fill:#202020;fill-rule:nonzero;"/></g><g transform="matrix(96,0,0,96,192.644,233.02)"><path d="M0.235,0.01c0.161,0 0.318,-0.11 0.318,-0.3c0,-0.12 -0.118,-0.18 -0.219,-0.18c-0.161,0 -0.318,0.11 -0.318,0.3c0,0.12 0.118,0.18 0.219,0.18Zm0,-0.004c-0.024,0 -0.035,-0.023 -0.035,-0.076c0,-0.124 0.065,-0.396 0.134,-0.396c0.024,0 0.035,0.023 0.035,0.076c0,0.124 -0.065,0.396 -0.134,0.396Z" style="fill:#202020;fill-rule:nonzero;"/></g><g transform="matrix(96,0,0,96,249.476,233.02)"><path d="M0.235,0.01c0.161,0 0.318,-0.11 0.318,-0.3c0,-0.12 -0.118,-0.18 -0.219,-0.18c-0.161,0 -0.318,0.11 -0.318,0.3c0,0.12 0.118,0.18 0.219,0.18Zm0,-0.004c-0.024,0 -0.035,-0.023 -0.035,-0.076c0,-0.124 0.065,-0.396 0.134,-0.396c0.024,0 0.035,0.023 0.035,0.076c0,0.124 -0.065,0.396 -0.134,0.396Z" style="fill:#202020;fill-rule:nonzero;"/></g><g transform="matrix(96,0,0,96,305.348,233.02)"><path d="M0.126,-0.456l-0.11,0.456l0.19,0l0.052,-0.216c0.036,-0.133 0.079,-0.234 0.136,-0.234c0.026,0 0.01,0.069 -0.016,0.145l-0.063,0.183c-0.003,0.011 -0.005,0.023 -0.005,0.038c0,0.063 0.046,0.094 0.133,0.094c0.111,0 0.17,-0.073 0.208,-0.173l-0.003,-0.002c-0.033,0.091 -0.093,0.156 -0.145,0.156c-0.013,0 -0.019,-0.006 -0.019,-0.017c0,-0.005 0.001,-0.012 0.003,-0.018l0.086,-0.253c0.036,-0.107 -0.027,-0.173 -0.134,-0.173c-0.094,0 -0.132,0.08 -0.165,0.188l0.043,-0.178l-0.26,0l0,0.004l0.069,0Z" style="fill:#202020;fill-rule:nonzero;"/></g><g transform="matrix(96,0,0,96,370.148,233.02)"><path d="M0.452,-0.392c-0.014,-0.026 -0.031,-0.037 -0.059,-0.037c-0.042,0 -0.072,0.03 -0.072,0.07c0,0.045 0.042,0.071 0.077,0.071c0.04,0 0.07,-0.031 0.07,-0.072c0,-0.057 -0.065,-0.109 -0.185,-0.109c-0.102,0 -0.211,0.063 -0.211,0.162c0,0.146 0.248,0.172 0.248,0.248c0,0.04 -0.044,0.067 -0.114,0.067c-0.119,0 -0.172,-0.041 -0.194,-0.08c0.012,0.015 0.041,0.026 0.066,0.026c0.039,0 0.077,-0.03 0.077,-0.075c0,-0.05 -0.044,-0.076 -0.079,-0.076c-0.04,0 -0.08,0.031 -0.08,0.082c0,0.055 0.051,0.127 0.21,0.127c0.127,0 0.227,-0.08 0.227,-0.174c0,-0.133 -0.235,-0.154 -0.235,-0.243c0,-0.026 0.023,-0.06 0.087,-0.06c0.099,0 0.153,0.037 0.167,0.073Z" style="fill:#202020;fill-rule:nonzero;"/></g><g transform="matrix(96,0,0,96,417.38,233.02)"><path d="M0.378,-0.305l-0.063,0.183c-0.003,0.011 -0.005,0.023 -0.005,0.038c0,0.063 0.046,0.094 0.133,0.094c0.111,0 0.17,-0.073 0.208,-0.173l-0.004,-0.002c-0.033,0.091 -0.092,0.156 -0.144,0.156c-0.013,0 -0.019,-0.006 -0.019,-0.017c0,-0.005 0.001,-0.012 0.003,-0.018l0.086,-0.253c0.036,-0.107 -0.027,-0.173 -0.134,-0.173c-0.095,0 -0.133,0.083 -0.167,0.194l0.114,-0.474l-0.26,0l0,0.004l0.069,0l-0.179,0.746l0.19,0l0.049,-0.206c0.037,-0.137 0.08,-0.244 0.138,-0.244c0.026,0 0.011,0.069 -0.015,0.145Z" style="fill:#202020;fill-rule:nonzero;"/></g><g transform="matrix(96,0,0,96,482.66,233.02)"><path d="M0.235,0.01c0.161,0 0.318,-0.11 0.318,-0.3c0,-0.12 -0.118,-0.18 -0.219,-0.18c-0.161,0 -0.318,0.11 -0.318,0.3c0,0.12 0.118,0.18 0.219,0.18Zm0,-0.004c-0.024,0 -0.035,-0.023 -0.035,-0.076c0,-0.124 0.065,-0.396 0.134,-0.396c0.024,0 0.035,0.023 0.035,0.076c0,0.124 -0.065,0.396 -0.134,0.396Z" style="fill:#202020;fill-rule:nonzero;"/></g><g transform="matrix(96,0,0,96,539.012,233.02)"><path d="M0.394,-0.163l-0.004,-0.002c-0.025,0.066 -0.084,0.144 -0.146,0.144c-0.013,0 -0.018,-0.008 -0.018,-0.019c0,-0.005 0.001,-0.012 0.002,-0.018l0.1,-0.398l0.098,0l0,-0.004l-0.097,0l0.025,-0.1l-0.189,0l-0.025,0.1l-0.084,0l0,0.004l0.083,0l-0.089,0.351c-0.002,0.006 -0.003,0.017 -0.003,0.022c0,0.07 0.042,0.093 0.119,0.093c0.111,0 0.19,-0.073 0.228,-0.173Z" style="fill:#202020;fill-rule:nonzero;"/></g><g transform="matrix(96,0,0,96,102.404,338.62)"><path d="M0.365,0c0.273,0 0.455,-0.232 0.455,-0.475c0,-0.193 -0.142,-0.275 -0.305,-0.275l-0.395,0l0,0.004l0.099,0l-0.168,0.742l-0.091,0l0,0.004l0.405,0Zm0.12,-0.746c0.094,0 0.106,0.089 0.106,0.181c0,0.162 -0.082,0.561 -0.266,0.561l-0.059,0l0.168,-0.742l0.051,0Z" style="fill:#202020;fill-rule:nonzero;"/></g><g transform="matrix(96,0,0,96,181.604,338.62)"><path d="M0.22,-0.091c0,-0.034 0.005,-0.073 0.012,-0.112c0.116,-0.004 0.308,-0.037 0.308,-0.159c0,-0.072 -0.091,-0.108 -0.193,-0.108c-0.161,0 -0.331,0.137 -0.331,0.32c0,0.12 0.098,0.16 0.209,0.16c0.111,0 0.211,-0.076 0.26,-0.153l-0.005,0c-0.051,0.077 -0.141,0.135 -0.195,0.135c-0.039,0 -0.065,-0.039 -0.065,-0.083Zm0.131,-0.375c0.02,0 0.023,0.038 0.023,0.065c0,0.122 -0.09,0.178 -0.141,0.192c0.025,-0.126 0.081,-0.257 0.118,-0.257Z" style="fill:#202020;fill-rule:nonzero;"/></g><g transform="matrix(96,0,0,96,234.788,338.62)"><path d="M0.452,-0.392c-0.014,-0.026 -0.031,-0.037 -0.059,-0.037c-0.042,0 -0.072,0.03 -0.072,0.07c0,0.045 0.042,0.071 0.077,0.071c0.04,0 0.07,-0.031 0.07,-0.072c0,-0.057 -0.065,-0.109 -0.185,-0.109c-0.102,0 -0.211,0.063 -0.211,0.162c0,0.146 0.248,0.172 0.248,0.248c0,0.04 -0.044,0.067 -0.114,0.067c-0.119,0 -0.172,-0.041 -0.194,-0.08c0.012,0.015 0.041,0.026 0.066,0.026c0.039,0 0.077,-0.03 0.077,-0.075c0,-0.05 -0.044,-0.076 -0.079,-0.076c-0.04,0 -0.08,0.031 -0.08,0.082c0,0.055 0.051,0.127 0.21,0.127c0.127,0 0.227,-0.08 0.227,-0.174c0,-0.133 -0.235,-0.154 -0.235,-0.243c0,-0.026 0.023,-0.06 0.087,-0.06c0.099,0 0.153,0.037 0.167,0.073Z" style="fill:#202020;fill-rule:nonzero;"/></g><g transform="matrix(96,0,0,96,283.94,338.62)"><path d="M0.141,-0.65c0,0.063 0.047,0.11 0.11,0.11c0.063,0 0.11,-0.047 0.11,-0.11c0,-0.063 -0.047,-0.11 -0.11,-0.11c-0.063,0 -0.11,0.047 -0.11,0.11Zm0.254,0.487l-0.004,-0.002c-0.033,0.088 -0.1,0.147 -0.144,0.147c-0.013,0 -0.018,-0.011 -0.018,-0.022c0,-0.005 0.001,-0.012 0.002,-0.018l0.102,-0.402l-0.272,0l0,0.004l0.081,0l-0.089,0.351c-0.002,0.006 -0.002,0.017 -0.002,0.022c0,0.07 0.039,0.093 0.116,0.093c0.111,0 0.19,-0.073 0.228,-0.173Z" style="fill:#202020;fill-rule:nonzero;"/></g><g transform="matrix(96,0,0,96,321.764,338.62)"><path d="M0.283,-0.16c0.141,0 0.268,-0.075 0.268,-0.185c0,-0.027 -0.008,-0.049 -0.022,-0.067c0.037,-0.036 0.074,-0.049 0.108,-0.049c0.046,0 0.082,0.025 0.088,0.081c-0.004,-0.026 -0.033,-0.051 -0.069,-0.051c-0.043,0 -0.076,0.034 -0.076,0.072c0,0.053 0.04,0.075 0.075,0.075c0.035,0 0.076,-0.023 0.076,-0.088c0,-0.045 -0.027,-0.093 -0.094,-0.093c-0.034,0 -0.073,0.013 -0.111,0.05c-0.033,-0.039 -0.097,-0.055 -0.173,-0.055c-0.141,0 -0.268,0.075 -0.268,0.185c0,0.077 0.064,0.114 0.151,0.123c-0.096,0.007 -0.199,0.039 -0.199,0.113c0,0.048 0.043,0.086 0.104,0.101c-0.051,0.001 -0.185,0.014 -0.185,0.101c0,0.086 0.165,0.107 0.288,0.107c0.13,0 0.297,-0.057 0.297,-0.218c0,-0.086 -0.049,-0.142 -0.154,-0.142c-0.028,0 -0.106,0.001 -0.141,0.001c-0.055,0 -0.09,-0.009 -0.09,-0.026c0,-0.026 0.064,-0.034 0.105,-0.036c0.007,0.001 0.014,0.001 0.022,0.001Zm0.005,-0.004c-0.019,0 -0.019,-0.037 -0.019,-0.061c0,-0.094 0.05,-0.241 0.079,-0.241c0.019,0 0.019,0.037 0.019,0.061c0,0.094 -0.05,0.241 -0.079,0.241Zm-0.184,0.305c0,-0.047 0.024,-0.077 0.047,-0.087c0.016,0.003 0.032,0.005 0.049,0.005l0.188,0c0.055,0 0.092,0.014 0.092,0.068c0,0.102 -0.156,0.129 -0.235,0.129c-0.096,0 -0.141,-0.046 -0.141,-0.115Z" style="fill:#202020;fill-rule:nonzero;"/></g><g transform="matrix(96,0,0,96,390.884,338.62)"><path d="M0.126,-0.456l-0.11,0.456l0.19,0l0.052,-0.216c0.036,-0.133 0.079,-0.234 0.136,-0.234c0.026,0 0.01,0.069 -0.016,0.145l-0.063,0.183c-0.003,0.011 -0.005,0.023 -0.005,0.038c0,0.063 0.046,0.094 0.133,0.094c0.111,0 0.17,-0.073 0.208,-0.173l-0.003,-0.002c-0.033,0.091 -0.093,0.156 -0.145,0.156c-0.013,0 -0.019,-0.006 -0.019,-0.017c0,-0.005 0.001,-0.012 0.003,-0.018l0.086,-0.253c0.036,-0.107 -0.027,-0.173 -0.134,-0.173c-0.094,0 -0.132,0.08 -0.165,0.188l0.043,-0.178l-0.26,0l0,0.004l0.069,0Z" style="fill:#202020;fill-rule:nonzero;"/></g><g transform="matrix(96,0,0,96,102.404,444.22)"><path d="M0.355,0.01c0.069,0 0.13,-0.028 0.183,-0.072l0.088,0.062l0.004,0l0.055,-0.235l-0.004,0c-0.09,0.132 -0.194,0.235 -0.298,0.235c-0.104,0 -0.113,-0.083 -0.113,-0.175c0,-0.182 0.091,-0.573 0.275,-0.573c0.064,0 0.157,0.061 0.191,0.233l0.004,0l0.053,-0.235l-0.004,0l-0.118,0.067c-0.039,-0.048 -0.093,-0.077 -0.166,-0.077c-0.253,0 -0.455,0.232 -0.455,0.505c0,0.163 0.122,0.265 0.305,0.265Z" style="fill:#202020;fill-rule:nonzero;"/></g><g transform="matrix(96,0,0,96,172.292,444.22)"><path d="M0.235,0.01c0.161,0 0.318,-0.11 0.318,-0.3c0,-0.12 -0.118,-0.18 -0.219,-0.18c-0.161,0 -0.318,0.11 -0.318,0.3c0,0.12 0.118,0.18 0.219,0.18Zm0,-0.004c-0.024,0 -0.035,-0.023 -0.035,-0.076c0,-0.124 0.065,-0.396 0.134,-0.396c0.024,0 0.035,0.023 0.035,0.076c0,0.124 -0.065,0.396 -0.134,0.396Z" style="fill:#202020;fill-rule:nonzero;"/></g><g transform="matrix(96,0,0,96,225.284,444.22)"><path d="M0.04,-0.11c0,0.066 0.054,0.12 0.12,0.12c0.066,0 0.12,-0.054 0.12,-0.12c0,-0.066 -0.054,-0.12 -0.12,-0.12c-0.066,0 -0.12,0.054 -0.12,0.12Z" style="fill:#202020;fill-rule:nonzero;"/></g></g><path d="M410.378,142.08c28.052,42.195 20.981,106.298 -21.214,148.492c-42.194,42.195 -106.297,49.266 -148.492,21.214c46.832,46.831 122.874,46.831 169.706,0c46.831,-46.832 46.831,-122.874 0,-169.706Z" style="fill:#202020;"/></svg>