<?xml version="1.0" encoding="utf-8"?>
<!-- Generator: Adobe Illustrator 14.0.0, SVG Export Plug-In . SVG Version: 6.00 Build 43363)  -->
<!DOCTYPE svg PUBLIC "-//W3C//DTD SVG 1.1//EN" "http://www.w3.org/Graphics/SVG/1.1/DTD/svg11.dtd">
<svg version="1.1" id="Layer_1" xmlns="http://www.w3.org/2000/svg" xmlns:xlink="http://www.w3.org/1999/xlink" x="0px" y="0px"
	 width="350px" height="230px" viewBox="0 0 350 230" enable-background="new 0 0 350 230" xml:space="preserve">
<g>
	<path d="M17.024,68.784l11.377-53.573h-5.617v-0.216h16.85l6.336,38.74l21.746-38.74H83.27v0.216h-4.464L67.5,68.784h5.688V69
		h-21.89v-0.216h5.112l11.377-53.357L37.258,69.72h-0.36l-8.425-54.149L17.24,68.784h6.121V69H11.984v-0.216H17.024z"/>
	<path d="M77.648,57.119c0-13.681,10.945-21.962,22.178-21.962c6.913,0,14.33,3.6,14.33,12.601
		c0,13.681-10.945,21.962-22.178,21.962C85.064,69.72,77.648,66.12,77.648,57.119z M103.786,43.438c0-4.969-1.152-7.993-3.96-7.993
		c-7.128,0-11.809,17.065-11.809,25.994c0,4.968,1.152,7.993,3.96,7.993C99.106,69.432,103.786,52.367,103.786,43.438z"/>
	<path d="M116.354,57.119c0-13.681,10.945-21.962,22.178-21.962c6.913,0,14.33,3.6,14.33,12.601
		c0,13.681-10.945,21.962-22.178,21.962C123.771,69.72,116.354,66.12,116.354,57.119z M142.492,43.438
		c0-4.969-1.152-7.993-3.96-7.993c-7.128,0-11.809,17.065-11.809,25.994c0,4.968,1.152,7.993,3.96,7.993
		C137.812,69.432,142.492,52.367,142.492,43.438z"/>
	<path d="M157.148,36.093v-0.216h15.122l-3.601,14.978c2.736-8.713,6.625-15.697,13.681-15.697c7.345,0,10.369,4.896,8.137,11.665
		l-6.408,19.297c-0.144,0.432-0.216,0.936-0.216,1.296c0,0.792,0.432,1.296,1.368,1.296c4.032,0,8.497-4.752,10.945-11.521
		l0.144,0.072c-2.736,7.2-7.128,12.457-14.041,12.457c-4.825,0-7.417-2.016-7.417-5.833c0-1.08,0.216-1.944,0.36-2.592l4.896-14.329
		c1.872-5.473,2.52-10.801-0.072-10.801c-4.896,0-9.073,7.201-11.737,16.417L164.349,69h-10.081l7.849-32.907H157.148z"/>
	<path d="M215.701,35.445c-4.176,0-6.625,2.376-6.625,4.968c0,7.201,16.201,8.064,16.201,17.642c0,6.769-6.84,11.809-14.905,11.809
		c-9.289,0-12.961-4.825-12.961-8.785c0-3.312,2.592-5.184,5.112-5.184c2.16,0,4.896,1.512,4.896,4.752
		c0,2.88-2.376,4.68-4.825,4.68s-4.392-1.656-4.68-3.096c0.648,3.672,4.393,7.417,12.457,7.417c5.041,0,8.208-2.592,8.208-5.904
		c0-6.625-16.417-7.057-16.417-17.57c0-7.128,7.2-10.945,13.537-10.945c7.057,0,11.377,3.528,11.377,7.273
		c0,2.952-2.016,4.68-4.537,4.68c-2.16,0-4.608-1.512-4.608-4.393c0-2.52,2.088-4.32,4.464-4.32c2.16,0,3.457,1.08,4.176,2.809
		C225.854,38.109,221.821,35.445,215.701,35.445z"/>
	<path d="M254.948,36.165c-5.4,0-9.937,8.857-12.601,19.442L239.251,69H229.17l12.529-53.789h-5.041v-0.216h15.122l-8.785,37.731
		c2.809-9.649,6.769-17.569,14.257-17.569c7.345,0,10.369,4.896,8.137,11.665L258.98,66.12c-0.144,0.432-0.216,0.936-0.216,1.296
		c0,0.792,0.432,1.296,1.368,1.296c4.032,0,8.353-4.752,10.801-11.521l0.144,0.072c-2.736,7.2-6.984,12.457-13.897,12.457
		c-4.825,0-7.417-2.016-7.417-5.833c0-1.08,0.216-1.944,0.36-2.592l4.896-14.329C256.893,41.494,257.541,36.165,254.948,36.165z"/>
	<path d="M272.996,57.119c0-13.681,10.945-21.962,22.178-21.962c6.913,0,14.33,3.6,14.33,12.601
		c0,13.681-10.945,21.962-22.178,21.962C280.413,69.72,272.996,66.12,272.996,57.119z M299.134,43.438
		c0-4.969-1.152-7.993-3.96-7.993c-7.128,0-11.809,17.065-11.809,25.994c0,4.968,1.152,7.993,3.96,7.993
		C294.454,69.432,299.134,52.367,299.134,43.438z"/>
	<path d="M319.479,69.72c-4.464,0-6.769-1.656-6.769-5.977c0-0.36,0-1.152,0.144-1.584l5.977-26.066h-6.12v-0.216h6.12l1.656-7.2
		h10.081l-1.656,7.2h6.841v0.216h-6.913l-6.769,29.522c-0.072,0.432-0.144,0.936-0.144,1.296c0,0.792,0.36,1.368,1.296,1.368
		c4.393,0,8.641-5.328,10.801-11.089l0.144,0.072C331.432,64.463,326.392,69.72,319.479,69.72z"/>
	<path d="M11.264,142v-0.216h6.553l12.097-53.573h-7.129v-0.216h24.914c11.737,0,20.882,6.265,20.882,19.082
		c0,18.578-13.825,34.923-32.403,34.923H11.264z M41.146,88.211l-12.097,53.573h5.688c14.329,0,21.602-25.922,21.602-39.388
		c0-6.625-1.944-14.185-9.793-14.185H41.146z"/>
	<path d="M84.1,141.856c5.616,0,11.665-4.68,14.905-10.153h0.216c-3.168,5.544-9.649,11.017-17.642,11.017
		c-6.913,0-13.249-3.24-13.249-11.881c0-13.537,11.521-22.682,22.034-22.682c6.985,0,12.458,2.232,12.458,7.417
		c0,9.433-14.257,10.945-22.682,11.161c-0.432,2.304-0.72,4.68-0.72,6.913C79.419,137.896,80.571,141.856,84.1,141.856z
		 M80.211,126.519c5.401-0.504,13.177-3.384,13.177-12.385c0-2.665-0.504-5.761-2.52-5.761
		C86.908,108.373,82.011,117.302,80.211,126.519z"/>
	<path d="M120.574,108.445c-4.176,0-6.625,2.376-6.625,4.968c0,7.201,16.201,8.064,16.201,17.642c0,6.769-6.84,11.809-14.905,11.809
		c-9.289,0-12.961-4.825-12.961-8.785c0-3.312,2.592-5.184,5.112-5.184c2.16,0,4.896,1.512,4.896,4.752
		c0,2.88-2.376,4.68-4.825,4.68s-4.392-1.656-4.68-3.096c0.648,3.672,4.393,7.417,12.457,7.417c5.041,0,8.208-2.592,8.208-5.904
		c0-6.625-16.417-7.057-16.417-17.57c0-7.128,7.2-10.945,13.537-10.945c7.057,0,11.377,3.528,11.377,7.273
		c0,2.952-2.016,4.68-4.537,4.68c-2.16,0-4.608-1.512-4.608-4.393c0-2.52,2.088-4.32,4.464-4.32c2.16,0,3.457,1.08,4.177,2.809
		C130.727,111.109,126.695,108.445,120.574,108.445z"/>
	<path d="M142.504,142.72c-4.465,0-6.769-1.656-6.769-5.977c0-0.36,0-1.152,0.144-1.584l6.265-26.066h-5.544v-0.216h15.697
		l-7.272,29.739c-0.072,0.432-0.144,0.936-0.144,1.296c0,0.792,0.36,1.512,1.296,1.512c3.745,0,8.281-4.536,10.729-11.233
		l0.144,0.072C154.313,137.463,149.416,142.72,142.504,142.72z M148.984,87.275c3.456,0,6.048,2.664,6.048,6.121
		c0,3.456-2.592,6.12-6.048,6.12c-3.457,0-6.193-2.664-6.193-6.12C142.792,89.939,145.528,87.275,148.984,87.275z"/>
	<path d="M198.076,119.75c-2.16,0-4.537-1.44-4.537-4.536c0-2.376,2.088-4.249,4.681-4.249c2.304,0,4.032,1.728,4.248,3.24
		c-0.288-3.744-2.88-5.473-6.121-5.473c-2.232,0-4.824,1.008-7.272,3.457c0.936,1.296,1.512,2.952,1.512,4.968
		c0,7.921-8.497,13.321-17.426,13.321c-2.376,0-8.064,0.504-8.064,3.168c0,1.584,3.096,2.304,7.057,2.304
		c2.52,0,5.616-0.072,7.633-0.072c6.48,0,9.792,2.952,9.792,9.145c0,10.152-10.297,15.697-20.018,15.697
		c-8.497,0-17.065-1.872-17.065-7.633c0-6.913,9.793-8.929,13.033-8.929h0.36c-4.464-0.648-7.705-2.592-7.705-6.048
		c0-4.969,6.913-7.201,12.529-7.705c-5.76-0.576-10.081-3.168-10.081-8.929c0-7.92,8.353-13.321,17.425-13.321
		c4.681,0,8.785,1.152,10.873,3.888c2.521-2.52,5.256-3.528,7.417-3.528c4.249,0,6.265,2.88,6.265,5.904
		C202.612,118.382,200.236,119.75,198.076,119.75z M169.705,160.434c6.409,0,16.417-2.952,16.417-10.729
		c0-3.888-2.304-5.256-6.265-5.256h-9.865c-1.44,0-2.808-0.072-4.032-0.288c-2.521,0.72-4.752,3.96-4.752,8.064
		C161.208,156.762,163.513,160.434,169.705,160.434z M180.722,113.917c0-2.448-0.72-5.544-2.809-5.544
		c-4.248,0-7.488,10.297-7.488,16.346c0,2.448,0.72,5.544,2.808,5.544C177.482,130.263,180.722,119.966,180.722,113.917z"/>
	<path d="M203.479,109.093v-0.216h15.122L215,123.854c2.736-8.713,6.625-15.697,13.681-15.697c7.345,0,10.369,4.896,8.137,11.665
		l-6.409,19.297c-0.144,0.432-0.216,0.936-0.216,1.296c0,0.792,0.432,1.296,1.368,1.296c4.032,0,8.497-4.752,10.945-11.521
		l0.144,0.072c-2.736,7.2-7.128,12.457-14.041,12.457c-4.825,0-7.417-2.016-7.417-5.833c0-1.08,0.216-1.944,0.36-2.592l4.896-14.329
		c1.872-5.473,2.52-10.801-0.072-10.801c-4.896,0-9.073,7.201-11.737,16.417L210.68,142h-10.081l7.849-32.907H203.479z"/>
	<path d="M17.744,196.639c0-19.658,14.618-36.363,32.115-36.363c5.185,0,9.289,2.016,11.953,5.616l6.769-4.896h0.144l-3.6,15.842
		h-0.216c-0.576-11.233-6.984-15.985-13.321-15.985c-14.33,0-21.89,25.922-21.89,40.827c0,6.984,2.16,13.537,9.649,13.537
		c8.569,0,16.345-6.984,21.026-16.058h0.288L56.628,215h-0.144l-4.393-4.681c-3.96,3.313-8.785,5.4-14.185,5.4
		C25.809,215.72,17.744,208.375,17.744,196.639z"/>
	<path d="M63.917,203.119c0-13.682,10.945-21.962,22.178-21.962c6.913,0,14.33,3.601,14.33,12.601
		c0,13.682-10.945,21.962-22.178,21.962C71.333,215.72,63.917,212.12,63.917,203.119z M90.055,189.438
		c0-4.968-1.152-7.992-3.96-7.992c-7.128,0-11.809,17.065-11.809,25.994c0,4.969,1.152,7.992,3.96,7.992
		C85.375,215.432,90.055,198.366,90.055,189.438z"/>
	<path d="M108.859,202.759c3.6,0,6.48,2.881,6.48,6.48c0,3.601-2.88,6.48-6.48,6.48c-3.601,0-6.48-2.88-6.48-6.48
		C102.379,205.64,105.259,202.759,108.859,202.759z"/>
</g>
</svg>
