<?xml version="1.0" standalone="no"?>
<!DOCTYPE svg PUBLIC "-//W3C//DTD SVG 20010904//EN"
 "http://www.w3.org/TR/2001/REC-SVG-20010904/DTD/svg10.dtd">
<svg version="1.0" xmlns="http://www.w3.org/2000/svg"
 width="600.000000pt" height="600.000000pt" viewBox="0 0 600.000000 600.000000"
 preserveAspectRatio="xMidYMid meet">
<metadata>
Created by potrace 1.11, written by Peter Selinger 2001-2013
</metadata>
<g transform="translate(0.000000,600.000000) scale(0.100000,-0.100000)"
fill="#000000" stroke="none">
<path d="M2920 5465 c0 -2 33 -23 73 -46 194 -113 361 -242 522 -404 61 -60
122 -123 135 -140 59 -71 129 -165 170 -225 24 -36 51 -77 61 -92 39 -57 150
-278 188 -376 38 -96 105 -303 115 -354 2 -13 11 -57 20 -98 8 -42 18 -102 21
-135 4 -33 10 -87 15 -120 9 -64 6 -430 -4 -505 -67 -481 -216 -856 -484
-1213 -88 -118 -103 -136 -212 -250 -264 -276 -641 -512 -1007 -631 -120 -38
-289 -81 -368 -92 -27 -3 -59 -8 -70 -10 -61 -12 -190 -19 -345 -19 -157 0
-222 4 -355 20 l-40 5 30 -16 c156 -88 504 -201 705 -229 25 -3 59 -8 75 -11
97 -17 193 -22 380 -19 116 2 221 6 234 9 13 3 49 8 80 12 31 3 58 8 61 9 3 2
26 6 50 10 93 14 342 84 425 121 17 7 64 27 105 44 394 164 780 480 1046 855
245 345 398 761 443 1200 12 118 7 449 -9 550 -7 44 -13 89 -15 100 -49 363
-270 856 -518 1152 -240 287 -474 480 -777 642 -193 103 -481 207 -650 236
-19 3 -50 10 -67 15 -18 4 -33 7 -33 5z"/>
</g>
</svg>
